# xmcd
#
# Track frame offsets: 
#        150
#        11745
#        23875
#        36339
#        49809
#        63384
#        76698
#        89518
#        104617
#        119368
#        131855
#        144682
#        158297
#        171481
#        182781
#        194947
#        209458
#        222640
#        244192
#        256576
#
# Disc length: 3581 seconds
#
# Revision: 0
# Processed by: cddbd v1.5.2PL0 Copyright (c) Steve Scherf et al.
# Submitted via: ExactAudioCopyFreeDBPlugin 1.0
#
DISCID=2f0dfb14
DTITLE=Muddy Waters - Can't Be Satisfied: The Very Best of
DYEAR=2018
DGENRE=Blues
TTITLE0=Gypsy Woman
TTITLE1=I Can't Be Satisfied
TTITLE2=Train Fare Home
TTITLE3=Rollin' and Tumblin' Part 1
TTITLE4=Rollin' Stone
TTITLE5=Walkin' Blues
TTITLE6=Louisiana Blues
TTITLE7=Honey Bee
TTITLE8=Turn the Lamp Down Low
TTITLE9=I'm Your Hoochie Coochie Man
TTITLE10=Just Make Love to Me
TTITLE11=I'm Ready
TTITLE12=Mannish Boy
TTITLE13=Sugar Sweet (I Can't Call Her Sugar)
TTITLE14=Trouble No More
TTITLE15=Close to You
TTITLE16=I Feel So Good
TTITLE17=I Got My Brand on You
TTITLE18=You Shook Me
TTITLE19=You Need Love
EXTD=
EXTT0=
EXTT1=
EXTT2=
EXTT3=
EXTT4=
EXTT5=
EXTT6=
EXTT7=
EXTT8=
EXTT9=
EXTT10=
EXTT11=
EXTT12=
EXTT13=
EXTT14=
EXTT15=
EXTT16=
EXTT17=
EXTT18=
EXTT19=
PLAYORDER=
